<svg width="23" height="23" viewBox="0 0 23 23" fill="none" xmlns="http://www.w3.org/2000/svg">
<path d="M4.32422 0.758297V1.26453H11.5H18.6758V0.758297V0.252067H11.5H4.32422V0.758297Z" fill="#979797"/>
<path d="M2.29907 2.82739V3.33362H11.5H20.7009V2.82739V2.32116H11.5H2.29907V2.82739Z" fill="#979797"/>
<path d="M0.22998 13.547V22.7479H11.5H22.77V13.547V4.34608H11.5H0.22998V13.547ZM21.7486 13.5778L21.7573 21.7794H11.5H1.24244V13.5999C1.24244 9.10064 1.25555 5.4027 1.27326 5.38959C1.28637 5.37188 5.90017 5.36314 11.5175 5.36751L21.7352 5.38062L21.7486 13.5778Z" fill="#979797"/>
<path d="M13.7011 9.01713C12.7194 9.25472 11.2976 9.60248 10.5445 9.7874L9.16661 10.1221V13.4679C9.16661 16.6331 9.16224 16.8093 9.09186 16.7872C8.70891 16.6683 8.23787 16.6465 7.91196 16.7345C7.00507 16.9767 6.49447 17.6591 6.71895 18.3326C7.00507 19.1999 8.35655 19.2087 9.21077 18.3501C9.64662 17.9142 9.62454 18.1125 9.65099 14.6961L9.67307 11.7245L12.3586 11.051C13.8377 10.6812 15.0571 10.3817 15.079 10.3774C15.0967 10.3774 15.1098 11.4779 15.1098 12.8206C15.1098 14.1634 15.1011 15.2639 15.0921 15.2639C15.079 15.2639 15.0174 15.2419 14.9513 15.22C14.6827 15.1144 14.1852 15.088 13.8947 15.154C12.9526 15.3741 12.4066 16.0478 12.6049 16.7477C12.6753 17.0073 12.9483 17.2934 13.1992 17.3684C13.503 17.4565 13.9653 17.4344 14.2998 17.3155C14.8589 17.1131 15.2154 16.7962 15.4532 16.2897L15.5721 16.0344L15.5852 12.3013C15.594 9.29888 15.5852 8.57254 15.5413 8.57691C15.5105 8.57691 14.6829 8.77494 13.7011 9.01713Z" fill="#979797"/>
</svg>
