<svg width="13" height="12" viewBox="0 0 13 12" fill="none" xmlns="http://www.w3.org/2000/svg">
<path d="M6.5 0C3.81875 0 1.625 2.19375 1.625 4.875V6.5H0.8125C0.597012 6.5 0.390349 6.5856 0.237976 6.73798C0.0856024 6.89035 0 7.09701 0 7.3125L0 10.5625C0 10.778 0.0856024 10.9847 0.237976 11.137C0.390349 11.2894 0.597012 11.375 0.8125 11.375H2.4375C2.65299 11.375 2.85965 11.2894 3.01202 11.137C3.1644 10.9847 3.25 10.778 3.25 10.5625V4.875C3.25 3.07125 4.69625 1.625 6.5 1.625C8.30375 1.625 9.75 3.07125 9.75 4.875V10.5625C9.75 10.778 9.8356 10.9847 9.98798 11.137C10.1403 11.2894 10.347 11.375 10.5625 11.375H12.1875C12.403 11.375 12.6097 11.2894 12.762 11.137C12.9144 10.9847 13 10.778 13 10.5625V7.3125C13 7.09701 12.9144 6.89035 12.762 6.73798C12.6097 6.5856 12.403 6.5 12.1875 6.5H11.375V4.875C11.375 2.19375 9.18125 0 6.5 0Z" fill="white"/>
</svg>
