<svg width="19" height="17" viewBox="0 0 19 17" fill="none" xmlns="http://www.w3.org/2000/svg">
<path d="M9.101 16.4522L9.09525 16.4487L9.0734 16.4372C8.6196 16.1903 8.17393 15.9288 7.7371 15.6529C6.69562 14.9976 5.70323 14.2674 4.7678 13.4679C2.6518 11.6429 0.300049 8.90475 0.300049 5.62495C0.30015 4.55483 0.631996 3.51106 1.24989 2.63735C1.86779 1.76365 2.74134 1.10298 3.75028 0.746321C4.75922 0.389663 5.85391 0.354553 6.88362 0.645827C7.91334 0.937101 8.82744 1.54043 9.50005 2.37275C10.1727 1.54043 11.0868 0.937101 12.1165 0.645827C13.1462 0.354553 14.2409 0.389663 15.2498 0.746321C16.2588 1.10298 17.1323 1.76365 17.7502 2.63735C18.3681 3.51106 18.6999 4.55483 18.7 5.62495C18.7 8.90475 16.3494 11.6429 14.2323 13.4679C12.9033 14.6035 11.4604 15.5985 9.9267 16.4372L9.90485 16.4487L9.8991 16.4522H9.8968C9.77461 16.5169 9.63847 16.5509 9.50019 16.5511C9.36191 16.5513 9.22568 16.5177 9.1033 16.4533L9.101 16.4522V16.4522Z" fill="#A61717"/>
</svg>
