<svg width="25" height="23" viewBox="0 0 25 23" fill="none" xmlns="http://www.w3.org/2000/svg">
<path d="M23.8821 10.3774L12.5387 0.233759C12.5188 0.213928 12.499 0.199054 12.4742 0.184181C12.2263 -0.0537939 11.8297 -0.0637095 11.5669 0.169307L0.223477 10.313C-0.0541598 10.5609 -0.0739911 10.9823 0.168941 11.2599C0.302802 11.4087 0.486241 11.483 0.66968 11.483C0.82833 11.483 0.986979 11.4285 1.11588 11.3145L3.1585 9.48502V9.84198V15.1369V21.3143C3.1585 22.2415 3.91208 23 4.84415 23C4.85903 23 4.86894 23 4.88381 23C4.89869 23 4.9086 23 4.92348 23H8.42369C9.29626 23 10.0052 22.291 10.0052 21.4185V15.4046C10.0052 15.2708 10.1143 15.1617 10.2482 15.1617H13.8624C13.9963 15.1617 14.1053 15.2708 14.1053 15.4046V21.4185C14.1053 22.291 14.8143 23 15.6869 23H19.2664C20.2084 23 20.9521 22.0729 20.9521 20.888V15.3749V13.6892V9.54947L22.9947 11.3789C23.1236 11.4929 23.2822 11.5475 23.4409 11.5475C23.6243 11.5475 23.8078 11.4731 23.9416 11.3244C24.1796 11.0467 24.1548 10.6253 23.8821 10.3774ZM19.6085 13.6843V15.3699V20.8781C19.6085 21.359 19.3705 21.6515 19.2614 21.6515H15.6819C15.5481 21.6515 15.439 21.5424 15.439 21.4085V15.4046C15.439 14.5321 14.73 13.8231 13.8574 13.8231H10.2432C9.37063 13.8231 8.66166 14.5321 8.66166 15.4046V21.4185C8.66166 21.5523 8.55259 21.6614 8.41873 21.6614H4.91852C4.90365 21.6614 4.89373 21.6614 4.87886 21.6614C4.86398 21.6614 4.85407 21.6614 4.83919 21.6614C4.6508 21.6614 4.49215 21.5077 4.49215 21.3143V15.132V9.83703V8.28523L12.0181 1.56245L19.6085 8.34968V13.6843Z" fill="#979797"/>
</svg>
