<svg width="24" height="17" viewBox="0 0 24 17" fill="none" xmlns="http://www.w3.org/2000/svg">
<g clip-path="url(#clip0_893_2968)">
<path d="M19.5 8.99994C19.5 7.76794 19.454 6.54694 19.362 5.33794C19.2912 4.38009 18.8787 3.47953 18.1996 2.80038C17.5204 2.12123 16.6199 1.7087 15.662 1.63794C13.2241 1.45402 10.7759 1.45402 8.338 1.63794C7.38015 1.7087 6.4796 2.12123 5.80045 2.80038C5.1213 3.47953 4.70876 4.38009 4.638 5.33794C4.621 5.55794 4.606 5.77894 4.592 5.99994M19.5 8.99994L22.5 5.99994M19.5 8.99994L16.5 5.99994M4.5 8.99994C4.5 10.2319 4.546 11.4529 4.638 12.6619C4.70876 13.6198 5.1213 14.5203 5.80045 15.1995C6.4796 15.8786 7.38015 16.2912 8.338 16.3619C10.7759 16.5459 13.2241 16.5459 15.662 16.3619C16.6199 16.2912 17.5204 15.8786 18.1996 15.1995C18.8787 14.5203 19.2912 13.6198 19.362 12.6619C19.379 12.4419 19.394 12.2209 19.408 11.9999M4.5 8.99994L7.5 11.9999M4.5 8.99994L1.5 11.9999" stroke="#979797" stroke-width="1.5" stroke-linecap="round" stroke-linejoin="round"/>
</g>
<defs>
<clipPath id="clip0_893_2968">
<rect width="24" height="17" fill="white"/>
</clipPath>
</defs>
</svg>
